<svg xmlns="http://www.w3.org/2000/svg" viewBox="0 0 172 59.639">
    <path
        d="M115.326 8.567c-.194 2.984-.829 5.845-1.464 8.76l-.593 2.755a3406.517 3406.517 0 0 1-1.474 6.837 2526.673 2526.673 0 0 0-1.247 5.796l-.587 2.707-.356 1.667-.167.753c-.308 1.46-.513 2.835-.373 4.334.944.765.944.765 2.1.638 1.467-.38 1.911-.767 2.841-1.957.299-1.01.394-2.023.494-3.068.779-6.218 2.654-11.983 7.745-16.042 3.38-2.069 6.736-2.9 10.692-2.155 2.078.674 3.024 2.006 4.052 3.844.66 1.655.657 3.471.741 5.231 2.558-.311 2.558-.311 4.637-1.696a54.89 54.89 0 0 0 1.089-1.722c1.797-2.915 4.548-4.622 7.762-5.691 2.681-.463 5.513-.427 7.929.872 1.699 1.787 1.787 3.118 1.756 5.528-.101.982-.189 1.52-.748 2.319-1.352.967-2.365.91-3.975.721-.351-.597-.351-.597-.659-1.318l.33-.989a23.573 23.573 0 0 0 .041-1.503l.003-.784c-.002-.7-.002-.7-.373-1.338-1.006 0-1.718.093-2.479.788-3.359 4.229-5.263 10.31-5.1 15.688.151 1.115.359 2.023.989 2.965 1.386.793 2.399.716 3.892.33 1.821-.617 3.404-1.584 5.003-2.637-.194 2.719-.867 4.649-2.903 6.529-2.487 2.007-5.131 2.58-8.28 2.274-2.824-.458-4.522-1.299-6.44-3.423-1.171-1.799-1.287-3.772-1.281-5.853l-.002-.771c.048-2.664.669-5.117 1.443-7.652l-2.965.33-.014.691c-.27 5.542-2.401 10.253-6.4 14.092-2.821 2.382-5.879 2.573-9.419 2.406-2.398-.205-3.873-1.183-5.459-2.938a56.788 56.788 0 0 1-1.115-1.404l-.473.53c-1.959 2.093-3.526 3.285-6.431 3.536a83.13 83.13 0 0 1-1.416.033l-.685.01c-1.447-.026-2.363-.27-3.516-1.144-.74-.845-1.354-1.703-1.976-2.637l-.473.53c-2.114 2.257-4.223 3.541-7.35 3.765-2.186-.034-3.994-.569-5.688-1.988-1.868-2.135-2.499-5.317-2.379-8.11.588-6.414 2.599-12.7 7.546-17.095 2.282-1.777 4.579-2.229 7.437-2.267l.685-.014c1.436.014 2.384.225 3.516 1.127v.659h.659l.036-.562c.2-2.468.724-4.818 1.302-7.222l.28-1.194a767.278 767.278 0 0 1 .688-2.883c1.18-.167 2.362-.33 3.541-.494l1.015-.143.979-.136.9-.126c.815-.091.815-.091 2.133-.091ZM98.267 24.909c-3.433 3.65-4.697 8.932-4.792 13.829l-.038 1.278c.162 1.357.488 1.877 1.459 2.821.941.413.941.413 1.976.33 2.035-1.058 3.203-2.477 3.954-4.613.249-.965.459-1.938.664-2.914l.179-.846.368-1.765c.187-.9.382-1.796.576-2.694l.358-1.718.179-.81c.291-1.44.463-2.439-.349-3.751-1.744-1.163-3.055-.482-4.537.855Zm30.239-.855c-3.901 4.049-5.421 10.759-5.415 16.233.169 1.06.499 1.686 1.132 2.549.922.755.922.755 1.935.617 1.603-.449 2.561-1.297 3.38-2.726a58.203 58.203 0 0 0 .657-1.311l.346-.697c1.037-2.188 1.56-4.362 1.92-6.76l-.989-.659c-.396-1.189-.437-2.047-.33-3.296a86.494 86.494 0 0 1 1.318-1.648c.163-1.362.114-1.808-.659-2.965-1.433-.542-2.124-.284-3.296.659Z"
        fill="#00A888"></path>
    <path
        d="M81.814 7.745c1.854 1.453 2.952 3.163 3.311 5.507a10.929 10.929 0 0 1-2.479 7.52c-1.378 1.481-2.872 2.819-4.555 3.941l.722.401c2.676 1.574 4.143 3.103 5.332 5.963.688 4.056.038 7.489-2.171 10.953-2.336 3.197-5.468 5.65-9.359 6.584-4.199.581-8.817.743-12.422-1.741-1.993-1.637-3.191-3.409-3.521-6.015-.237-2.821-.024-5.728 1.751-8.053 2.03-1.935 3.941-2.019 6.643-1.976 1.572.196 2.147.59 3.139 1.792 0 .762 0 .762-.33 1.648-.562.26-.562.26-1.256.473-1.044.342-1.383.518-2.183 1.338-1.075 2.41-1.049 4.68-.212 7.157.464.762.839.948 1.675 1.245 2.231.327 4.092-.002 5.931-1.318 2.243-2.141 3.041-4.677 3.13-7.743-.1-3.201-.958-5.485-3.151-7.824-1.003-.908-2.1-1.567-3.275-2.226l-.989-.659.951-.458 1.252-.612.624-.299c3.07-1.512 5.203-3.842 6.376-7.093.483-1.706.568-3.101-.021-4.799-.764-1.121-1.318-1.452-2.595-1.895-1.431-.179-2.117-.1-3.399.576-1.245 1.042-1.496 1.541-1.648 3.151.157 1.854.717 3.242 2.079 4.51-1.739 1.395-3.175 1.92-5.418 1.808-1.388-.263-1.906-.728-2.821-1.808-.826-1.689-.943-3.497-.483-5.31 1.025-2.974 3.032-4.539 5.79-5.91 4.143-1.555 9.88-1.256 13.571 1.171Zm-30.06-.084c1.696 1.244 2.503 2.828 2.945 4.861.507 5.057-.755 9.345-3.942 13.33-2.755 3.165-5.9 5.857-9.207 8.419-2.518 1.954-4.893 3.879-6.62 6.588l.581-.022c1.579-.034 3.034.053 4.587.353 3.466.616 7.219.96 10.318-.989a18.963 18.963 0 0 0 1.854-1.849l.451-.458h.659c.17 7.709.17 7.709-1.976 10.215-1.727 1.12-3.258 1.166-5.251 1.152h-.951c-2.766-.057-5.366-.55-8.043-1.225-2.551-.642-4.615-.953-7.131.072-1.643.659-1.643.659-2.348.659-.299-5.686 1.563-9.455 5.263-13.653a89.918 89.918 0 0 1 4.314-4.45c4.948-4.907 8.634-10.587 8.677-17.676-.139-1.195-.408-1.816-1.12-2.774-1.128-.846-2.255-.779-3.624-.659-1.262.561-1.791 1.041-2.307 2.307-.26 1.861-.052 3.342.989 4.943l.659.33c-.313.826-.638 1.3-1.297 1.895-1.541.63-2.995.671-4.634.411-1.299-.647-2.097-1.631-2.637-2.965-.33-2.437.026-4.498 1.318-6.589 4.168-5.093 13.091-5.485 18.473-2.224Zm-23.417-1.73c-.217 2.329-.628 4.573-1.118 6.861l-.243 1.147-.793 3.729-.55 2.597-1.152 5.43-1.333 6.28a8049.481 8049.481 0 0 1-1.283 6.049l-.545 2.573-.762 3.583-.229 1.08-.21.98-.182.855c-.167.683-.167.683-.495 1.342h-8.568c1.34-7.15 2.836-14.262 4.357-21.374l.98-4.601 1.911-8.953-5.272-.33.659-2.965 1.087-.098c4.496-.442 8.155-1.631 12.148-3.727.934-.458.934-.458 1.593-.458Z"
        fill="#FF6D18"></path>
</svg>