<svg xmlns="http://www.w3.org/2000/svg" viewBox="0 0 50 50" fill="none">
    <rect width="50" height="50" fill="#A0B6BD" />
    <path
        d="M13.8954 23.6748C13.6605 24.0214 13.4954 24.326 13.28 24.7232C11.2482 23.8017 9.18795 22.8674 6.95215 21.8534C8.65161 20.8744 10.177 19.9887 11.709 19.1144C15.6073 16.8897 19.5152 14.6817 23.4017 12.4366C24.0359 12.0702 24.538 12.0454 25.1895 12.4143C28.8429 14.4827 32.5284 16.4946 36.1846 18.5582C36.9194 18.9729 37.5461 19.1294 38.3972 18.78C39.7728 18.2152 40.3133 18.6719 40.4539 20.1312C40.4909 20.5157 40.8125 20.9187 41.1009 21.2197C41.3656 21.4959 41.7618 21.646 42.1209 21.8643C42.0635 21.9914 42.042 22.1434 41.979 22.1633C40.4672 22.639 40.2873 23.7564 40.3885 25.1413C40.4938 26.5822 40.359 28.0394 40.4304 29.4845C40.4789 30.4664 40.7197 31.4374 40.8381 32.4177C40.8887 32.8372 40.8465 33.2679 40.8465 33.8713C40.4494 33.5944 40.2013 33.4215 39.9068 33.2161C39.6627 33.404 39.4164 33.5936 38.8662 34.0171C39.1148 32.1389 39.4125 30.5525 39.5125 28.9538C39.6184 27.2622 39.5363 25.5588 39.5363 23.5724C38.2608 24.2179 37.1652 24.7722 35.825 25.4504C36.3604 23.5668 35.0464 23.2329 33.9417 22.916C31.3096 22.1609 28.6755 21.2478 25.9788 20.9205C21.7254 20.4042 17.7546 21.7642 13.8954 23.6748ZM38.6299 21.503C38.6329 21.9065 38.5585 22.3371 38.6846 22.6975C38.7243 22.8108 39.3919 22.8622 39.6098 22.7099C39.8223 22.5614 39.9818 21.9015 39.8957 21.8395C39.5786 21.611 39.1498 21.5375 38.6299 21.503Z"
        fill="#FEFEFE" />
    <path
        d="M32.5775 29.1436C26.5244 26.9799 20.6401 27.51 14.6473 29.9356C14.6473 28.0054 14.6163 26.3228 14.6822 24.6441C14.6916 24.4046 15.1361 24.1164 15.4366 23.964C21.617 20.8289 27.8151 20.9574 34.0085 23.9232C34.3023 24.064 34.7176 24.3741 34.7267 24.6184C34.7898 26.3029 34.7599 27.9909 34.7599 29.8304C33.9502 29.5745 33.3058 29.3708 32.5775 29.1436Z"
        fill="#FEFEFE" />
    <path
        d="M21.3514 32.3586C23.7773 32.9402 26.0836 32.7042 28.434 32.3778C29.8648 32.179 31.3889 32.3814 32.8327 32.6282C34.1255 32.8492 34.2994 33.5061 33.6759 34.6308C33.4708 35.0009 33.3728 35.436 33.2598 35.8505C32.7379 37.7647 31.6998 38.6945 29.8848 38.853C28.0655 39.0118 26.6751 38.2027 25.8846 36.4943C25.673 36.0368 25.5535 35.5371 25.3483 35.076C25.0386 34.38 24.6087 34.4314 24.2433 35.0088C24.0154 35.3688 23.905 35.8037 23.7459 36.2066C22.9617 38.1915 21.7511 38.9023 19.4778 38.7107C17.7095 38.5617 16.7637 37.6482 16.2922 35.6947C16.1931 35.2842 16.0083 34.8803 15.7927 34.5148C15.2501 33.595 15.3895 32.8988 16.4283 32.7266C18.015 32.4636 19.6446 32.4596 21.3514 32.3586ZM16.9656 34.5306C17.0293 36.5655 17.8837 37.824 19.3538 38.0488C21.2206 38.3342 22.6816 37.4818 23.2892 35.7527C23.7299 34.4986 23.3718 33.6319 22.0727 33.3655C20.9198 33.129 19.7104 33.0972 18.5269 33.1056C17.7744 33.1109 17.1207 33.4723 16.9656 34.5306ZM27.8093 33.2753C26.2439 33.7563 25.8197 34.3218 26.2193 35.5336C26.3859 36.0385 26.6488 36.5417 26.9796 36.9565C27.8203 38.0107 29.685 38.3795 30.9681 37.8125C31.9662 37.3715 32.738 35.7504 32.5313 34.4799C32.3926 33.6271 31.903 33.067 31.0101 33.0689C30.0019 33.0711 28.994 33.1772 27.8093 33.2753Z"
        fill="#FAFBFC" />
</svg>